<svg width="62" height="62" viewBox="0 0 62 62" fill="none" xmlns="http://www.w3.org/2000/svg">
<g id="bi:people">
<path id="Vector" d="M58.125 54.25C58.125 54.25 62 54.25 62 50.375C62 46.5 58.125 34.875 42.625 34.875C27.125 34.875 23.25 46.5 23.25 50.375C23.25 54.25 27.125 54.25 27.125 54.25H58.125ZM27.2102 50.375C27.1816 50.3711 27.1532 50.3659 27.125 50.3595C27.1289 49.3365 27.7721 46.3683 30.07 43.6945C32.209 41.1874 35.9678 38.75 42.625 38.75C49.2784 38.75 53.0371 41.1912 55.18 43.6945C57.4779 46.3683 58.1172 49.3404 58.125 50.3595L58.094 50.3673C58.076 50.3703 58.0579 50.3729 58.0397 50.375H27.2102ZM42.625 27.125C44.6804 27.125 46.6517 26.3085 48.1051 24.8551C49.5585 23.4017 50.375 21.4304 50.375 19.375C50.375 17.3196 49.5585 15.3483 48.1051 13.8949C46.6517 12.4415 44.6804 11.625 42.625 11.625C40.5696 11.625 38.5983 12.4415 37.1449 13.8949C35.6915 15.3483 34.875 17.3196 34.875 19.375C34.875 21.4304 35.6915 23.4017 37.1449 24.8551C38.5983 26.3085 40.5696 27.125 42.625 27.125ZM54.25 19.375C54.25 20.9016 53.9493 22.4133 53.3651 23.8237C52.7809 25.2341 51.9246 26.5156 50.8451 27.5951C49.7656 28.6746 48.4841 29.5309 47.0737 30.1151C45.6633 30.6993 44.1516 31 42.625 31C41.0984 31 39.5867 30.6993 38.1763 30.1151C36.7659 29.5309 35.4844 28.6746 34.4049 27.5951C33.3254 26.5156 32.4691 25.2341 31.8849 23.8237C31.3007 22.4133 31 20.9016 31 19.375C31 16.2919 32.2248 13.335 34.4049 11.1549C36.585 8.97477 39.5419 7.75 42.625 7.75C45.7081 7.75 48.665 8.97477 50.8451 11.1549C53.0252 13.335 54.25 16.2919 54.25 19.375ZM26.877 35.96C25.3269 35.4719 23.7291 35.151 22.1108 35.0029C21.2014 34.9164 20.2884 34.8737 19.375 34.875C3.875 34.875 0 46.5 0 50.375C0 52.9596 1.29037 54.25 3.875 54.25H20.212C19.6376 53.0403 19.3511 51.714 19.375 50.375C19.375 46.4613 20.8359 42.4622 23.5988 39.122C24.5404 37.9827 25.637 36.9171 26.877 35.96ZM19.065 38.75C16.7716 42.1959 15.5327 46.2358 15.5 50.375H3.875C3.875 49.3675 4.5105 46.3838 6.82 43.6945C8.93188 41.23 12.6015 38.8275 19.065 38.7539V38.75ZM5.8125 21.3125C5.8125 18.2294 7.03727 15.2725 9.21738 13.0924C11.3975 10.9123 14.3544 9.6875 17.4375 9.6875C20.5206 9.6875 23.4775 10.9123 25.6576 13.0924C27.8377 15.2725 29.0625 18.2294 29.0625 21.3125C29.0625 24.3956 27.8377 27.3525 25.6576 29.5326C23.4775 31.7127 20.5206 32.9375 17.4375 32.9375C14.3544 32.9375 11.3975 31.7127 9.21738 29.5326C7.03727 27.3525 5.8125 24.3956 5.8125 21.3125ZM17.4375 13.5625C15.3821 13.5625 13.4108 14.379 11.9574 15.8324C10.504 17.2858 9.6875 19.2571 9.6875 21.3125C9.6875 23.3679 10.504 25.3392 11.9574 26.7926C13.4108 28.246 15.3821 29.0625 17.4375 29.0625C19.4929 29.0625 21.4642 28.246 22.9176 26.7926C24.371 25.3392 25.1875 23.3679 25.1875 21.3125C25.1875 19.2571 24.371 17.2858 22.9176 15.8324C21.4642 14.379 19.4929 13.5625 17.4375 13.5625Z" fill="#F8F8F8"/>
</g>
</svg>
