<svg width="62" height="62" viewBox="0 0 62 62" fill="none" xmlns="http://www.w3.org/2000/svg">
<g id="uil:exit">
<path id="Vector" d="M10.3334 31C10.3334 31.6851 10.6055 32.3422 11.09 32.8267C11.5745 33.3112 12.2316 33.5833 12.9167 33.5833H32.5242L26.5825 39.4992C26.3404 39.7393 26.1482 40.025 26.0171 40.3398C25.8859 40.6546 25.8184 40.9923 25.8184 41.3333C25.8184 41.6744 25.8859 42.012 26.0171 42.3268C26.1482 42.6416 26.3404 42.9273 26.5825 43.1675C26.8227 43.4096 27.1084 43.6018 27.4232 43.733C27.738 43.8641 28.0757 43.9316 28.4167 43.9316C28.7577 43.9316 29.0954 43.8641 29.4102 43.733C29.725 43.6018 30.0107 43.4096 30.2509 43.1675L40.5842 32.8342C40.8194 32.5885 41.0038 32.2988 41.1267 31.9817C41.3851 31.3527 41.3851 30.6473 41.1267 30.0183C41.0038 29.7012 40.8194 29.4115 40.5842 29.1658L30.2509 18.8325C30.01 18.5916 29.7241 18.4006 29.4094 18.2702C29.0946 18.1398 28.7573 18.0728 28.4167 18.0728C28.0761 18.0728 27.7388 18.1398 27.4241 18.2702C27.1094 18.4006 26.8234 18.5916 26.5825 18.8325C26.3417 19.0734 26.1506 19.3593 26.0203 19.674C25.8899 19.9887 25.8228 20.326 25.8228 20.6667C25.8228 21.0073 25.8899 21.3446 26.0203 21.6593C26.1506 21.974 26.3417 22.26 26.5825 22.5008L32.5242 28.4167H12.9167C12.2316 28.4167 11.5745 28.6888 11.09 29.1733C10.6055 29.6578 10.3334 30.3148 10.3334 31ZM43.9167 5.16666H18.0834C16.0279 5.16666 14.0567 5.98317 12.6033 7.43658C11.1499 8.88999 10.3334 10.8612 10.3334 12.9167V20.6667C10.3334 21.3518 10.6055 22.0089 11.09 22.4933C11.5745 22.9778 12.2316 23.25 12.9167 23.25C13.6018 23.25 14.2589 22.9778 14.7434 22.4933C15.2279 22.0089 15.5 21.3518 15.5 20.6667V12.9167C15.5 12.2315 15.7722 11.5744 16.2567 11.09C16.7412 10.6055 17.3982 10.3333 18.0834 10.3333H43.9167C44.6018 10.3333 45.2589 10.6055 45.7434 11.09C46.2279 11.5744 46.5 12.2315 46.5 12.9167V49.0833C46.5 49.7685 46.2279 50.4256 45.7434 50.91C45.2589 51.3945 44.6018 51.6667 43.9167 51.6667H18.0834C17.3982 51.6667 16.7412 51.3945 16.2567 50.91C15.7722 50.4256 15.5 49.7685 15.5 49.0833V41.3333C15.5 40.6482 15.2279 39.9911 14.7434 39.5066C14.2589 39.0222 13.6018 38.75 12.9167 38.75C12.2316 38.75 11.5745 39.0222 11.09 39.5066C10.6055 39.9911 10.3334 40.6482 10.3334 41.3333V49.0833C10.3334 51.1388 11.1499 53.11 12.6033 54.5634C14.0567 56.0168 16.0279 56.8333 18.0834 56.8333H43.9167C45.9721 56.8333 47.9434 56.0168 49.3968 54.5634C50.8502 53.11 51.6667 51.1388 51.6667 49.0833V12.9167C51.6667 10.8612 50.8502 8.88999 49.3968 7.43658C47.9434 5.98317 45.9721 5.16666 43.9167 5.16666Z" fill="#F8F8F8"/>
</g>
</svg>
