<svg width="62" height="62" viewBox="0 0 62 62" fill="none" xmlns="http://www.w3.org/2000/svg">
<g id="ph:key-bold">
<path id="Vector" d="M38.75 2.90625C35.5894 2.90808 32.4727 3.64584 29.6467 5.06109C26.8208 6.47635 24.3631 8.5302 22.4686 11.06C20.574 13.5897 19.2945 16.5259 18.7315 19.6359C18.1685 22.7459 18.3374 25.9443 19.2248 28.9777L5.69383 42.5063C5.42403 42.7764 5.21009 43.097 5.06423 43.4498C4.91837 43.8027 4.84345 44.1807 4.84375 44.5625V54.25C4.84375 55.0208 5.14994 55.76 5.69497 56.305C6.24 56.8501 6.97922 57.1562 7.75 57.1562H17.4375C18.2083 57.1562 18.9475 56.8501 19.4925 56.305C20.0376 55.76 20.3438 55.0208 20.3438 54.25V51.3438H23.25C24.0208 51.3438 24.76 51.0376 25.305 50.4925C25.8501 49.9475 26.1563 49.2083 26.1563 48.4375V45.5312H29.0625C29.4443 45.5316 29.8224 45.4566 30.1752 45.3108C30.528 45.1649 30.8486 44.951 31.1187 44.6812L33.0223 42.7752C35.8198 43.5937 38.7605 43.8015 41.6453 43.3845C44.5301 42.9675 47.2917 41.9355 49.7429 40.3584C52.1941 38.7812 54.2778 36.6957 55.8529 34.2431C57.4279 31.7905 58.4576 29.0281 58.8721 26.143C59.2866 23.2578 59.0762 20.3172 58.2553 17.5204C57.4344 14.7236 56.0221 12.1359 54.114 9.93245C52.2059 7.72901 49.8466 5.96132 47.1958 4.74908C44.5451 3.53685 41.6648 2.90839 38.75 2.90625ZM38.75 37.7812C36.9175 37.7851 35.101 37.4399 33.3977 36.7641C32.8634 36.535 32.2728 36.4714 31.702 36.5815C31.1313 36.6916 30.6067 36.9703 30.1959 37.3816L27.8516 39.7188H23.25C22.4792 39.7188 21.74 40.0249 21.195 40.57C20.6499 41.115 20.3438 41.8542 20.3438 42.625V45.5312H17.4375C16.6667 45.5312 15.9275 45.8374 15.3825 46.3825C14.8374 46.9275 14.5313 47.6667 14.5313 48.4375V51.3438H10.6563V45.7734L24.6184 31.8113C25.0292 31.4008 25.3076 30.8766 25.4177 30.3064C25.5278 29.7361 25.4645 29.146 25.2359 28.612C24.0891 25.7234 23.8986 22.5432 24.6925 19.5384C25.4863 16.5335 27.2227 13.8624 29.6465 11.9171C32.0704 9.97182 35.0541 8.85493 38.1596 8.73042C41.265 8.60591 44.3286 9.48034 46.9004 11.2253C49.4722 12.9703 51.4168 15.4939 52.4487 18.4255C53.4806 21.3572 53.5453 24.5424 52.6334 27.5136C51.7215 30.4847 49.8811 33.0852 47.3822 34.9333C44.8834 36.7813 41.8579 37.7795 38.75 37.7812ZM47.4688 18.4062C47.4688 19.1727 47.2415 19.9218 46.8157 20.5591C46.3899 21.1963 45.7847 21.693 45.0767 21.9863C44.3686 22.2796 43.5895 22.3563 42.8378 22.2068C42.0861 22.0573 41.3956 21.6882 40.8537 21.1463C40.3118 20.6044 39.9427 19.9139 39.7932 19.1622C39.6437 18.4105 39.7204 17.6314 40.0137 16.9234C40.307 16.2153 40.8037 15.6101 41.4409 15.1843C42.0782 14.7585 42.8274 14.5312 43.5938 14.5312C44.6215 14.5312 45.6071 14.9395 46.3338 15.6662C47.0605 16.3929 47.4688 17.3785 47.4688 18.4062Z" fill="#F8F8F8"/>
</g>
</svg>
